HIERARCHY
ROOT root
{
	OFFSET 0.00 0.00 0.00
	CHANNELS 6 Xposition Yposition Zposition Zrotation Xrotation Yrotation
	JOINT lowerback
	{
		OFFSET 0 0 0
		CHANNELS 6 Xposition Yposition Zposition Zrotation Xrotation Yrotation
		JOINT upperback
		{
			OFFSET -0.214371 12.3768 -1.12219
			CHANNELS 6 Xposition Yposition Zposition Zrotation Xrotation Yrotation
			JOINT thorax
			{
				OFFSET -0.00137213 12.3873 0.296195
				CHANNELS 6 Xposition Yposition Zposition Zrotation Xrotation Yrotation
				JOINT lowerneck
				{
					OFFSET 0.0883157 12.5016 0.82912
					CHANNELS 6 Xposition Yposition Zposition Zrotation Xrotation Yrotation
					JOINT upperneck
					{
						OFFSET -1 10.1794 0.943522
						CHANNELS 6 Xposition Yposition Zposition Zrotation Xrotation Yrotation
						JOINT head
						{
							OFFSET 0.667525 10.2797 -1.57149
							CHANNELS 6 Xposition Yposition Zposition Zrotation Xrotation Yrotation
							End Site
							{
								OFFSET 0 0 0
							}
						}
					}
				}
				JOINT lclavicle
				{
					OFFSET 0.0883157 12.5016 0.82912
					CHANNELS 6 Xposition Yposition Zposition Zrotation Xrotation Yrotation
					JOINT lhumerus
					{
						OFFSET 20.61 4.45006 1.43784
						CHANNELS 6 Xposition Yposition Zposition Zrotation Xrotation Yrotation
						JOINT lradius
						{
							OFFSET 0 -30.3438 0
							CHANNELS 6 Xposition Yposition Zposition Zrotation Xrotation Yrotation
							JOINT lwrist
							{
								OFFSET 0 -18.964 0
								CHANNELS 6 Xposition Yposition Zposition Zrotation Xrotation Yrotation
								JOINT lhand
								{
									OFFSET 0 -9.48199 0
									CHANNELS 6 Xposition Yposition Zposition Zrotation Xrotation Yrotation
									JOINT lfingers
									{
										OFFSET 0 -3.17138 0
										CHANNELS 6 Xposition Yposition Zposition Zrotation Xrotation Yrotation
										End Site
										{
											OFFSET 0 -2.55685 0
										}
									}
								}
								JOINT lthumb
								{
									OFFSET 0 -9.48199 0
									CHANNELS 6 Xposition Yposition Zposition Zrotation Xrotation Yrotation
									End Site
									{
										OFFSET 0 -3.67114 0
									}
								}
							}
						}
					}
				}
				JOINT rclavicle
				{
					OFFSET 0.0883157 12.5016 0.82912
					CHANNELS 6 Xposition Yposition Zposition Zrotation Xrotation Yrotation
					JOINT rhumerus
					{
						OFFSET -20.61 4.45 1.44
						CHANNELS 6 Xposition Yposition Zposition Zrotation Xrotation Yrotation
						JOINT rradius
						{
							OFFSET 0 -29.5102 0
							CHANNELS 6 Xposition Yposition Zposition Zrotation Xrotation Yrotation
							JOINT rwrist
							{
								OFFSET 0 -19.2342 0
								CHANNELS 6 Xposition Yposition Zposition Zrotation Xrotation Yrotation
								JOINT rhand
								{
									OFFSET 0 -9.61712 0
									CHANNELS 6 Xposition Yposition Zposition Zrotation Xrotation Yrotation
									JOINT rfingers
									{
										OFFSET 0 -3.29215 0
										CHANNELS 6 Xposition Yposition Zposition Zrotation Xrotation Yrotation
										End Site
										{
											OFFSET 0 -2.557 0
										}
									}
								}
								JOINT rthumb
								{
									OFFSET 0 -9.61712 0
									CHANNELS 6 Xposition Yposition Zposition Zrotation Xrotation Yrotation
									End Site
									{
										OFFSET 0 -3.671 0
									}
								}
							}
						}
					}
				}
			}
		}
	}
	JOINT rfemur
	{
		OFFSET -8.46272 -9.62775 4.76248
		CHANNELS 6 Xposition Yposition Zposition Zrotation Xrotation Yrotation
		JOINT rtibia
		{
			OFFSET 1.00552e-005 -38.0331 0
			CHANNELS 6 Xposition Yposition Zposition Zrotation Xrotation Yrotation
			JOINT rfoot
			{
				OFFSET 1.14428e-005 -43.2815 0
				CHANNELS 6 Xposition Yposition Zposition Zrotation Xrotation Yrotation
				JOINT rtoes
				{
					OFFSET 0 -14.1868 -3.08763
					CHANNELS 6 Xposition Yposition Zposition Zrotation Xrotation Yrotation
					End Site
					{
						OFFSET 0 -7.27332 0
					}
				}
			}
		}
	}
	JOINT lfemur
	{
		OFFSET 9.10607 -9.62778 4.76249
		CHANNELS 6 Xposition Yposition Zposition Zrotation Xrotation Yrotation
		JOINT ltibia
		{
			OFFSET -1.01399e-005 -38.3535 0
			CHANNELS 6 Xposition Yposition Zposition Zrotation Xrotation Yrotation
			JOINT lfoot
			{
				OFFSET -1.12937e-005 -42.7176 0
				CHANNELS 6 Xposition Yposition Zposition Zrotation Xrotation Yrotation
				JOINT ltoes
				{
					OFFSET 0 -13.9965 -2.83857
					CHANNELS 6 Xposition Yposition Zposition Zrotation Xrotation Yrotation
					End Site
					{
						OFFSET 0 -7.16348 0
					}
				}
			}
		}
	}
}
MOTION
Frames: 6
Frame Time: 0.00833333
1.84937	96.4869	172.628	-3.69534	-6.4521	-1.35031	0 0 0 3.22132	13.6255	0.953017	-0.214371 12.3768 -1.12219 2.52319	-0.806793	2.00895	-0.00137213 12.3873 0.296195 0.436163	-8.50798	0.887222	0.0883157 12.5016 0.82912 -2.69965	-2.73116	-1.27482	-1 10.1794 0.943522 0.19374	12.0557	-1.23253	0.667525 10.2797 -1.57149 0.339356	4.03612	-0.850218	0.0883157 12.5016 0.82912 -15	0	-0	20.61 4.45006 1.43784 9.30921	12.5708	-173.402	0 -30.3438 0 -0	37.308	-0	0 -18.964 0 1.33524e-014	-3.01558e-015	-115.453	0 -9.48199 0 1.22245	4.37968	-2.58917e-014	0 -3.17138 0 -0	7.12502	-0	0 -9.48199 0 25	15	-1.36605e-015	0.0883157 12.5016 0.82912 15	0	-0	-20.61 4.45 1.44 -16.7523	1.33362	165.602	0 -29.5102 0 -0	32.0243	-0	0 -19.2342 0 1.01132e-015	-3.62898e-015	121.144	0 -9.61712 0 1.22	4.38	-0	0 -3.29215 0 -0	7.12502	-0	0 -9.61712 0 25	15	-7.97034e-015	-8.46272 -9.62775 4.76248 8.40559	13.0126	4.5083	1.00552e-005 -38.0331 0 -0	37.5702	-0	1.14428e-005 -43.2815 0 -2.14116e-015	-63.0577	-2.50555e-015	0 -14.1868 -3.08763 -0	-24.7927	-0	9.10607 -9.62778 4.76249 -0.182084	-19.4404	-5.11543	-1.01399e-005 -38.3535 0 -0	26.7334	-0	-1.12937e-005 -42.7176 0 1.40065e-015	-61.4255	1.59492e-015	0 -13.9965 -2.83857 -0	-28.2248	-0
1.9712	96.4889	173.594	-3.36563	-6.66592	-1.29187	0 0 0 2.96593	13.8116	0.946922	-0.214371 12.3768 -1.12219 2.43126	-0.760284	1.95875	-0.00137213 12.3873 0.296195 0.488499	-8.56944	0.871291	0.0883157 12.5016 0.82912 -2.72105	-2.71159	-1.25152	-1 10.1794 0.943522 0.184309	12.0972	-1.19273	0.667525 10.2797 -1.57149 0.346708	4.04779	-0.835599	0.0883157 12.5016 0.82912 -15	0	-0	20.61 4.45006 1.43784 9.28214	12.6161	-173.199	0 -30.3438 0 -0	37.1484	-0	0 -18.964 0 1.33513e-014	-3.01779e-015	-115.473	0 -9.48199 0 1.22245	4.37968	-2.58917e-014	0 -3.17138 0 -0	7.12502	-0	0 -9.48199 0 25	15	-1.36605e-015	0.0883157 12.5016 0.82912 15	0	-0	-20.61 4.45 1.44 -16.5614	1.6081	165.106	0 -29.5102 0 -0	31.7588	-0	0 -19.2342 0 1.01442e-015	-3.63411e-015	121.193	0 -9.61712 0 1.22	4.38	-0	0 -3.29215 0 -0	7.12502	-0	0 -9.61712 0 25	15	-7.97034e-015	-8.46272 -9.62775 4.76248 7.87211	11.8802	4.16279	1.00552e-005 -38.0331 0 -0	40.1015	-0	1.14428e-005 -43.2815 0 -1.88652e-015	-60.159	-2.28146e-015	0 -14.1868 -3.08763 -0	-23.1568	-0	9.10607 -9.62778 4.76249 -0.630238	-18.8465	-4.82211	-1.01399e-005 -38.3535 0 -0	27.1234	-0	-1.12937e-005 -42.7176 0 1.38899e-015	-61.2238	1.58469e-015	0 -13.9965 -2.83857 -0	-26.7098	-0
2.1041	96.5169	174.551	-3.03829	-6.87802	-1.25098	0 0 0 2.71047	14.013	0.942073	-0.214371 12.3768 -1.12219 2.34307	-0.708114	1.91003	-0.00137213 12.3873 0.296195 0.544575	-8.63348	0.85623	0.0883157 12.5016 0.82912 -2.73927	-2.67794	-1.22194	-1 10.1794 0.943522 0.162174	12.0946	-1.14202	0.667525 10.2797 -1.57149 0.351025	4.03919	-0.816721	0.0883157 12.5016 0.82912 -15	0	-0	20.61 4.45006 1.43784 9.26496	12.6547	-173.044	0 -30.3438 0 -0	37.0255	-0	0 -18.964 0 1.33525e-014	-3.01524e-015	-115.45	0 -9.48199 0 1.22245	4.37968	-2.58917e-014	0 -3.17138 0 -0	7.12502	-0	0 -9.48199 0 25	15	-1.36605e-015	0.0883157 12.5016 0.82912 15	0	-0	-20.61 4.45 1.44 -16.39	1.87921	164.685	0 -29.5102 0 -0	31.5124	-0	0 -19.2342 0 1.01474e-015	-3.63464e-015	121.198	0 -9.61712 0 1.22	4.38	-0	0 -3.29215 0 -0	7.12502	-0	0 -9.61712 0 25	15	-7.97034e-015	-8.46272 -9.62775 4.76248 7.31764	10.6504	3.84541	1.00552e-005 -38.0331 0 -0	42.6803	-0	1.14428e-005 -43.2815 0 -1.6786e-015	-57.34	-2.10366e-015	0 -14.1868 -3.08763 -0	-21.8526	-0	9.10607 -9.62778 4.76249 -1.09016	-18.2336	-4.53402	-1.01399e-005 -38.3535 0 -0	27.4918	-0	-1.12937e-005 -42.7176 0 1.3858e-015	-61.1682	1.58189e-015	0 -13.9965 -2.83857 -0	-25.3597	-0
2.25677	96.5869	175.501	-2.71125	-7.08607	-1.22915	0 0 0 2.45055	14.2238	0.94197	-0.214371 12.3768 -1.12219 2.25848	-0.65097	1.8631	-0.00137213 12.3873 0.296195 0.60635	-8.69744	0.842413	0.0883157 12.5016 0.82912 -2.75287	-2.62865	-1.18644	-1 10.1794 0.943522 0.125636	12.0497	-1.08082	0.667525 10.2797 -1.57149 0.351346	4.01072	-0.793825	0.0883157 12.5016 0.82912 -15	0	-0	20.61 4.45006 1.43784 9.2606	12.6835	-172.95	0 -30.3438 0 -0	36.9347	-0	0 -18.964 0 1.33557e-014	-3.00861e-015	-115.39	0 -9.48199 0 1.22245	4.37968	-2.58917e-014	0 -3.17138 0 -0	7.12502	-0	0 -9.48199 0 25	15	-1.36605e-015	0.0883157 12.5016 0.82912 15	0	-0	-20.61 4.45 1.44 -16.2436	2.14364	164.35	0 -29.5102 0 -0	31.2804	-0	0 -19.2342 0 1.01347e-015	-3.63254e-015	121.178	0 -9.61712 0 1.22	4.38	-0	0 -3.29215 0 -0	7.12502	-0	0 -9.61712 0 25	15	-7.97034e-015	-8.46272 -9.62775 4.76248 6.7453	9.34051	3.56047	1.00552e-005 -38.0331 0 -0	45.2862	-0	1.14428e-005 -43.2815 0 -1.51238e-015	-54.7247	-1.96577e-015	0 -14.1868 -3.08763 -0	-20.9673	-0	9.10607 -9.62778 4.76249 -1.56669	-17.5973	-4.26828	-1.01399e-005 -38.3535 0 -0	27.8274	-0	-1.12937e-005 -42.7176 0 1.39e-015	-61.2413	1.58557e-015	0 -13.9965 -2.83857 -0	-24.2093	-0
2.4232	96.6849	176.441	-2.38337	-7.28888	-1.22516	0 0 0 2.18401	14.4391	0.942516	-0.214371 12.3768 -1.12219 2.17761	-0.589529	1.81735	-0.00137213 12.3873 0.296195 0.675985	-8.75922	0.829729	0.0883157 12.5016 0.82912 -2.76054	-2.56324	-1.14552	-1 10.1794 0.943522 0.0733212	11.967	-1.00975	0.667525 10.2797 -1.57149 0.346787	3.96406	-0.767249	0.0883157 12.5016 0.82912 -15	0	-0	20.61 4.45006 1.43784 9.27137	12.6988	-172.922	0 -30.3438 0 -0	36.8696	-0	0 -18.964 0 1.33603e-014	-2.99887e-015	-115.302	0 -9.48199 0 1.22245	4.37968	-2.58917e-014	0 -3.17138 0 -0	7.12502	-0	0 -9.48199 0 25	15	-1.36605e-015	0.0883157 12.5016 0.82912 15	0	-0	-20.61 4.45 1.44 -16.1259	2.39708	164.106	0 -29.5102 0 -0	31.0554	-0	0 -19.2342 0 1.01195e-015	-3.63003e-015	121.154	0 -9.61712 0 1.22	4.38	-0	0 -3.29215 0 -0	7.12502	-0	0 -9.61712 0 25	15	-7.97034e-015	-8.46272 -9.62775 4.76248 6.16068	7.96945	3.30625	1.00552e-005 -38.0331 0 -0	47.8982	-0	1.14428e-005 -43.2815 0 -1.38327e-015	-52.4295	-1.86186e-015	0 -14.1868 -3.08763 -0	-20.5434	-0	9.10607 -9.62778 4.76249 -2.06129	-16.9343	-4.03979	-1.01399e-005 -38.3535 0 -0	28.1202	-0	-1.12937e-005 -42.7176 0 1.4005e-015	-61.4229	1.59479e-015	0 -13.9965 -2.83857 -0	-23.2805	-0
2.58832	96.7839	177.369	-2.05487	-7.48649	-1.2351	0 0 0 1.90892	14.6553	0.943283	-0.214371 12.3768 -1.12219 2.10095	-0.524258	1.77127	-0.00137213 12.3873 0.296195 0.755551	-8.81717	0.817569	0.0883157 12.5016 0.82912 -2.76109	-2.48256	-1.09977	-1 10.1794 0.943522 0.00430166	11.8533	-0.929619	0.667525 10.2797 -1.57149 0.336609	3.90206	-0.737386	0.0883157 12.5016 0.82912 -15	0	-0	20.61 4.45006 1.43784 9.29862	12.6965	-172.962	0 -30.3438 0 -0	36.8229	-0	0 -18.964 0 1.33656e-014	-2.98757e-015	-115.2	0 -9.48199 0 1.22245	4.37968	-2.58917e-014	0 -3.17138 0 -0	7.12502	-0	0 -9.48199 0 25	15	-1.36605e-015	0.0883157 12.5016 0.82912 15	0	-0	-20.61 4.45 1.44 -16.0389	2.63429	163.955	0 -29.5102 0 -0	30.8292	-0	0 -19.2342 0 1.01189e-015	-3.62992e-015	121.153	0 -9.61712 0 1.22	4.38	-0	0 -3.29215 0 -0	7.12502	-0	0 -9.61712 0 25	15	-7.97034e-015	-8.46272 -9.62775 4.76248 5.57121	6.55629	3.07544	1.00552e-005 -38.0331 0 -0	50.4954	-0	1.14428e-005 -43.2815 0 -1.28735e-015	-50.5538	-1.78679e-015	0 -14.1868 -3.08763 -0	-20.5764	-0	9.10607 -9.62778 4.76249 -2.5715	-16.2425	-3.85918	-1.01399e-005 -38.3535 0 -0	28.363	-0	-1.12937e-005 -42.7176 0 1.41632e-015	-61.6923	1.60869e-015	0 -13.9965 -2.83857 -0	-22.5809	-0
